<mxfile host="app.diagrams.net" agent="Mozilla/5.0 (Windows NT 10.0; Win64; x64) AppleWebKit/537.36 (KHTML, like Gecko) Chrome/137.0.0.0 Safari/537.36" version="27.1.4">
  <diagram name="페이지-1" id="eisdHvtt9pM22h8amt2_">
    <mxGraphModel dx="1420" dy="1920" grid="1" gridSize="10" guides="1" tooltips="1" connect="1" arrows="1" fold="1" page="1" pageScale="1" pageWidth="827" pageHeight="1169" math="0" shadow="0">
      <root>
        <mxCell id="0" />
        <mxCell id="1" parent="0" />
        <mxCell id="n1FdgLcyJgvq4uo9NDfe-1" value="&amp;nbsp; &amp;nbsp; &amp;nbsp; &amp;nbsp;" style="rounded=0;whiteSpace=wrap;html=1;" vertex="1" parent="1">
          <mxGeometry x="160" y="-90" width="1710" height="1370" as="geometry" />
        </mxCell>
        <mxCell id="n1FdgLcyJgvq4uo9NDfe-3" value="User" style="swimlane;fontStyle=0;childLayout=stackLayout;horizontal=1;startSize=30;horizontalStack=0;resizeParent=1;resizeParentMax=0;resizeLast=0;collapsible=1;marginBottom=0;whiteSpace=wrap;html=1;" vertex="1" parent="1">
          <mxGeometry x="910" y="150" width="140" height="180" as="geometry" />
        </mxCell>
        <mxCell id="n1FdgLcyJgvq4uo9NDfe-6" value="&lt;div&gt;userID : String&lt;/div&gt;&lt;div&gt;userName: String&lt;/div&gt;password: String&lt;div&gt;email: String&lt;/div&gt;&lt;div&gt;ㅡㅡㅡㅡㅡㅡㅡㅡㅡㅡㅡ&lt;/div&gt;&lt;div&gt;login(): boolean&lt;/div&gt;&lt;div&gt;logout(): void&lt;/div&gt;&lt;div&gt;updateInfo(name:String, email:String):&amp;nbsp; void&lt;/div&gt;&lt;div&gt;&lt;br&gt;&lt;/div&gt;" style="text;strokeColor=none;fillColor=none;align=left;verticalAlign=middle;spacingLeft=4;spacingRight=4;overflow=hidden;points=[[0,0.5],[1,0.5]];portConstraint=eastwest;rotatable=0;whiteSpace=wrap;html=1;" vertex="1" parent="n1FdgLcyJgvq4uo9NDfe-3">
          <mxGeometry y="30" width="140" height="150" as="geometry" />
        </mxCell>
        <mxCell id="n1FdgLcyJgvq4uo9NDfe-10" value="RunningRecord" style="swimlane;fontStyle=0;childLayout=stackLayout;horizontal=1;startSize=30;horizontalStack=0;resizeParent=1;resizeParentMax=0;resizeLast=0;collapsible=1;marginBottom=0;whiteSpace=wrap;html=1;" vertex="1" parent="1">
          <mxGeometry x="590" y="370" width="160" height="190" as="geometry" />
        </mxCell>
        <mxCell id="n1FdgLcyJgvq4uo9NDfe-11" value="date: Date&lt;div&gt;distance: double&lt;/div&gt;&lt;div&gt;duration: double&lt;/div&gt;&lt;div&gt;averagePace: double&lt;/div&gt;&lt;div&gt;ㅡㅡㅡㅡㅡㅡㅡㅡㅡㅡㅡㅡㅡ&lt;/div&gt;&lt;div&gt;addRecord(distance: double, duration: double): void&lt;/div&gt;&lt;div&gt;updateRecord(id: int): void&lt;/div&gt;&lt;div&gt;deleteRecord(): void&lt;/div&gt;&lt;div&gt;&lt;br&gt;&lt;/div&gt;" style="text;strokeColor=none;fillColor=none;align=left;verticalAlign=middle;spacingLeft=4;spacingRight=4;overflow=hidden;points=[[0,0.5],[1,0.5]];portConstraint=eastwest;rotatable=0;whiteSpace=wrap;html=1;" vertex="1" parent="n1FdgLcyJgvq4uo9NDfe-10">
          <mxGeometry y="30" width="160" height="160" as="geometry" />
        </mxCell>
        <mxCell id="n1FdgLcyJgvq4uo9NDfe-14" value="TrainingRoutine" style="swimlane;fontStyle=0;childLayout=stackLayout;horizontal=1;startSize=30;horizontalStack=0;resizeParent=1;resizeParentMax=0;resizeLast=0;collapsible=1;marginBottom=0;whiteSpace=wrap;html=1;" vertex="1" parent="1">
          <mxGeometry x="1230" y="380" width="180" height="120" as="geometry" />
        </mxCell>
        <mxCell id="n1FdgLcyJgvq4uo9NDfe-15" value="&lt;div&gt;&lt;div&gt;routineName: String&lt;/div&gt;&lt;div&gt;description: String&lt;/div&gt;&lt;div&gt;duration: int&lt;/div&gt;&lt;div&gt;ㅡㅡㅡㅡㅡㅡㅡㅡㅡㅡㅡㅡㅡㅡㅡ&lt;/div&gt;&lt;/div&gt;&lt;div&gt;getRoutineDetails(name:String): String&lt;/div&gt;&lt;div&gt;&lt;br&gt;&lt;/div&gt;" style="text;strokeColor=none;fillColor=none;align=left;verticalAlign=middle;spacingLeft=4;spacingRight=4;overflow=hidden;points=[[0,0.5],[1,0.5]];portConstraint=eastwest;rotatable=0;whiteSpace=wrap;html=1;" vertex="1" parent="n1FdgLcyJgvq4uo9NDfe-14">
          <mxGeometry y="30" width="180" height="90" as="geometry" />
        </mxCell>
        <mxCell id="n1FdgLcyJgvq4uo9NDfe-19" value="Statistics" style="swimlane;fontStyle=0;childLayout=stackLayout;horizontal=1;startSize=30;horizontalStack=0;resizeParent=1;resizeParentMax=0;resizeLast=0;collapsible=1;marginBottom=0;whiteSpace=wrap;html=1;" vertex="1" parent="1">
          <mxGeometry x="600" y="170" width="140" height="140" as="geometry" />
        </mxCell>
        <mxCell id="n1FdgLcyJgvq4uo9NDfe-20" value="totalDistance: double&lt;div&gt;averageSpeed: double&lt;br&gt;&lt;div&gt;ㅡㅡㅡㅡㅡㅡㅡㅡㅡㅡㅡ&lt;/div&gt;&lt;div&gt;calculateTotalDistance(): double&lt;/div&gt;&lt;/div&gt;&lt;div&gt;calculateAveragePace(): double&lt;/div&gt;" style="text;strokeColor=none;fillColor=none;align=left;verticalAlign=middle;spacingLeft=4;spacingRight=4;overflow=hidden;points=[[0,0.5],[1,0.5]];portConstraint=eastwest;rotatable=0;whiteSpace=wrap;html=1;" vertex="1" parent="n1FdgLcyJgvq4uo9NDfe-19">
          <mxGeometry y="30" width="140" height="110" as="geometry" />
        </mxCell>
        <mxCell id="n1FdgLcyJgvq4uo9NDfe-58" value="" style="endArrow=classic;html=1;rounded=0;exitX=1;exitY=0.5;exitDx=0;exitDy=0;entryX=1;entryY=0.5;entryDx=0;entryDy=0;" edge="1" parent="n1FdgLcyJgvq4uo9NDfe-19" source="n1FdgLcyJgvq4uo9NDfe-20" target="n1FdgLcyJgvq4uo9NDfe-20">
          <mxGeometry width="50" height="50" relative="1" as="geometry">
            <mxPoint x="260" y="160" as="sourcePoint" />
            <mxPoint x="310" y="110" as="targetPoint" />
          </mxGeometry>
        </mxCell>
        <mxCell id="n1FdgLcyJgvq4uo9NDfe-28" value="MarathonSchedule" style="swimlane;fontStyle=0;childLayout=stackLayout;horizontal=1;startSize=30;horizontalStack=0;resizeParent=1;resizeParentMax=0;resizeLast=0;collapsible=1;marginBottom=0;whiteSpace=wrap;html=1;" vertex="1" parent="1">
          <mxGeometry x="1190" y="165" width="170" height="150" as="geometry" />
        </mxCell>
        <mxCell id="n1FdgLcyJgvq4uo9NDfe-29" value="evnet: String&lt;div&gt;date: Date&lt;/div&gt;&lt;div&gt;location: String&lt;br&gt;&lt;div&gt;ㅡㅡㅡㅡㅡㅡㅡㅡㅡㅡㅡㅡㅡㅡ&lt;/div&gt;&lt;/div&gt;&lt;div&gt;addSchedule(event:String, date: Date): void&lt;/div&gt;&lt;div&gt;updateSchedule(id: int): void&lt;/div&gt;" style="text;strokeColor=none;fillColor=none;align=left;verticalAlign=middle;spacingLeft=4;spacingRight=4;overflow=hidden;points=[[0,0.5],[1,0.5]];portConstraint=eastwest;rotatable=0;whiteSpace=wrap;html=1;" vertex="1" parent="n1FdgLcyJgvq4uo9NDfe-28">
          <mxGeometry y="30" width="170" height="120" as="geometry" />
        </mxCell>
        <mxCell id="n1FdgLcyJgvq4uo9NDfe-32" value="Course" style="swimlane;fontStyle=0;childLayout=stackLayout;horizontal=1;startSize=30;horizontalStack=0;resizeParent=1;resizeParentMax=0;resizeLast=0;collapsible=1;marginBottom=0;whiteSpace=wrap;html=1;" vertex="1" parent="1">
          <mxGeometry x="1020" y="410" width="140" height="150" as="geometry" />
        </mxCell>
        <mxCell id="n1FdgLcyJgvq4uo9NDfe-33" value="&lt;div&gt;location: String&lt;/div&gt;&lt;div&gt;distance: double&lt;/div&gt;&lt;div&gt;difficultyLevel: String&lt;/div&gt;&lt;div&gt;ㅡㅡㅡㅡㅡㅡㅡㅡㅡㅡㅡ&lt;/div&gt;&lt;div&gt;saerchCourse(): List&lt;/div&gt;&lt;div&gt;getCourseDetails(): Cou rse&lt;/div&gt;" style="text;strokeColor=none;fillColor=none;align=left;verticalAlign=middle;spacingLeft=4;spacingRight=4;overflow=hidden;points=[[0,0.5],[1,0.5]];portConstraint=eastwest;rotatable=0;whiteSpace=wrap;html=1;" vertex="1" parent="n1FdgLcyJgvq4uo9NDfe-32">
          <mxGeometry y="30" width="140" height="120" as="geometry" />
        </mxCell>
        <mxCell id="n1FdgLcyJgvq4uo9NDfe-36" value="Notification" style="swimlane;fontStyle=0;childLayout=stackLayout;horizontal=1;startSize=30;horizontalStack=0;resizeParent=1;resizeParentMax=0;resizeLast=0;collapsible=1;marginBottom=0;whiteSpace=wrap;html=1;" vertex="1" parent="1">
          <mxGeometry x="780" y="410" width="190" height="140" as="geometry" />
        </mxCell>
        <mxCell id="n1FdgLcyJgvq4uo9NDfe-37" value="content: String&lt;div&gt;recipient: String&lt;/div&gt;&lt;div&gt;time: Date&lt;br&gt;&lt;div&gt;ㅡㅡㅡㅡㅡㅡㅡㅡㅡㅡㅡㅡㅡㅡㅡㅡ&lt;/div&gt;&lt;div&gt;CreateNotification(content:String, recipient: String): void&lt;/div&gt;&lt;/div&gt;&lt;div&gt;sendNotification(): void&lt;/div&gt;" style="text;strokeColor=none;fillColor=none;align=left;verticalAlign=middle;spacingLeft=4;spacingRight=4;overflow=hidden;points=[[0,0.5],[1,0.5]];portConstraint=eastwest;rotatable=0;whiteSpace=wrap;html=1;" vertex="1" parent="n1FdgLcyJgvq4uo9NDfe-36">
          <mxGeometry y="30" width="190" height="110" as="geometry" />
        </mxCell>
        <mxCell id="n1FdgLcyJgvq4uo9NDfe-40" value="HealthInfo" style="swimlane;fontStyle=0;childLayout=stackLayout;horizontal=1;startSize=30;horizontalStack=0;resizeParent=1;resizeParentMax=0;resizeLast=0;collapsible=1;marginBottom=0;whiteSpace=wrap;html=1;" vertex="1" parent="1">
          <mxGeometry x="910" y="-60" width="140" height="120" as="geometry" />
        </mxCell>
        <mxCell id="n1FdgLcyJgvq4uo9NDfe-41" value="injuryType: String&lt;br&gt;&lt;div&gt;treatment: String&amp;nbsp;&lt;/div&gt;&lt;div&gt;ㅡㅡㅡㅡㅡㅡㅡㅡㅡㅡㅡ&lt;/div&gt;&lt;div&gt;getinjuryInfo(type: String): List&lt;/div&gt;&lt;div&gt;updateInfo(): void&lt;/div&gt;" style="text;strokeColor=none;fillColor=none;align=left;verticalAlign=middle;spacingLeft=4;spacingRight=4;overflow=hidden;points=[[0,0.5],[1,0.5]];portConstraint=eastwest;rotatable=0;whiteSpace=wrap;html=1;" vertex="1" parent="n1FdgLcyJgvq4uo9NDfe-40">
          <mxGeometry y="30" width="140" height="90" as="geometry" />
        </mxCell>
        <mxCell id="n1FdgLcyJgvq4uo9NDfe-59" value="" style="endArrow=classic;html=1;rounded=0;entryX=1;entryY=0.5;entryDx=0;entryDy=0;exitX=0;exitY=0.5;exitDx=0;exitDy=0;" edge="1" parent="1" source="n1FdgLcyJgvq4uo9NDfe-6" target="n1FdgLcyJgvq4uo9NDfe-20">
          <mxGeometry width="50" height="50" relative="1" as="geometry">
            <mxPoint x="860" y="330" as="sourcePoint" />
            <mxPoint x="910" y="280" as="targetPoint" />
          </mxGeometry>
        </mxCell>
        <mxCell id="n1FdgLcyJgvq4uo9NDfe-60" value="" style="endArrow=classic;html=1;rounded=0;exitX=1;exitY=0.5;exitDx=0;exitDy=0;entryX=0;entryY=0.5;entryDx=0;entryDy=0;" edge="1" parent="1" source="n1FdgLcyJgvq4uo9NDfe-6" target="n1FdgLcyJgvq4uo9NDfe-29">
          <mxGeometry width="50" height="50" relative="1" as="geometry">
            <mxPoint x="860" y="330" as="sourcePoint" />
            <mxPoint x="910" y="280" as="targetPoint" />
          </mxGeometry>
        </mxCell>
        <mxCell id="n1FdgLcyJgvq4uo9NDfe-61" value="" style="endArrow=classic;html=1;rounded=0;entryX=0.498;entryY=1.001;entryDx=0;entryDy=0;entryPerimeter=0;exitX=0.5;exitY=0;exitDx=0;exitDy=0;" edge="1" parent="1" source="n1FdgLcyJgvq4uo9NDfe-3" target="n1FdgLcyJgvq4uo9NDfe-41">
          <mxGeometry width="50" height="50" relative="1" as="geometry">
            <mxPoint x="860" y="330" as="sourcePoint" />
            <mxPoint x="910" y="280" as="targetPoint" />
          </mxGeometry>
        </mxCell>
        <mxCell id="n1FdgLcyJgvq4uo9NDfe-66" value="" style="endArrow=classic;html=1;rounded=0;entryX=0.5;entryY=0;entryDx=0;entryDy=0;exitX=0.253;exitY=1.004;exitDx=0;exitDy=0;exitPerimeter=0;edgeStyle=orthogonalEdgeStyle;" edge="1" parent="1" source="n1FdgLcyJgvq4uo9NDfe-95" target="n1FdgLcyJgvq4uo9NDfe-36">
          <mxGeometry width="50" height="50" relative="1" as="geometry">
            <mxPoint x="880" y="220" as="sourcePoint" />
            <mxPoint x="930" y="170" as="targetPoint" />
          </mxGeometry>
        </mxCell>
        <mxCell id="n1FdgLcyJgvq4uo9NDfe-67" value="" style="endArrow=classic;html=1;rounded=0;entryX=0.5;entryY=0;entryDx=0;entryDy=0;exitX=0.002;exitY=1.001;exitDx=0;exitDy=0;exitPerimeter=0;edgeStyle=orthogonalEdgeStyle;" edge="1" parent="1" source="n1FdgLcyJgvq4uo9NDfe-6" target="n1FdgLcyJgvq4uo9NDfe-10">
          <mxGeometry width="50" height="50" relative="1" as="geometry">
            <mxPoint x="880" y="220" as="sourcePoint" />
            <mxPoint x="930" y="170" as="targetPoint" />
          </mxGeometry>
        </mxCell>
        <mxCell id="n1FdgLcyJgvq4uo9NDfe-68" value="" style="endArrow=classic;html=1;rounded=0;entryX=0.5;entryY=0;entryDx=0;entryDy=0;exitX=0.753;exitY=0.998;exitDx=0;exitDy=0;exitPerimeter=0;edgeStyle=orthogonalEdgeStyle;" edge="1" parent="1" source="n1FdgLcyJgvq4uo9NDfe-6" target="n1FdgLcyJgvq4uo9NDfe-32">
          <mxGeometry width="50" height="50" relative="1" as="geometry">
            <mxPoint x="880" y="220" as="sourcePoint" />
            <mxPoint x="930" y="170" as="targetPoint" />
          </mxGeometry>
        </mxCell>
        <mxCell id="n1FdgLcyJgvq4uo9NDfe-69" value="" style="endArrow=classic;html=1;rounded=0;entryX=0.5;entryY=0;entryDx=0;entryDy=0;exitX=1.005;exitY=1.004;exitDx=0;exitDy=0;exitPerimeter=0;edgeStyle=orthogonalEdgeStyle;" edge="1" parent="1" source="n1FdgLcyJgvq4uo9NDfe-6" target="n1FdgLcyJgvq4uo9NDfe-14">
          <mxGeometry width="50" height="50" relative="1" as="geometry">
            <mxPoint x="880" y="220" as="sourcePoint" />
            <mxPoint x="930" y="170" as="targetPoint" />
          </mxGeometry>
        </mxCell>
        <mxCell id="n1FdgLcyJgvq4uo9NDfe-72" value="1" style="text;html=1;align=center;verticalAlign=middle;whiteSpace=wrap;rounded=0;" vertex="1" parent="1">
          <mxGeometry x="845" y="210" width="60" height="30" as="geometry" />
        </mxCell>
        <mxCell id="n1FdgLcyJgvq4uo9NDfe-74" value="1" style="text;html=1;align=center;verticalAlign=middle;whiteSpace=wrap;rounded=0;" vertex="1" parent="1">
          <mxGeometry x="740" y="210" width="60" height="30" as="geometry" />
        </mxCell>
        <mxCell id="n1FdgLcyJgvq4uo9NDfe-75" value="1" style="text;html=1;align=center;verticalAlign=middle;whiteSpace=wrap;rounded=0;" vertex="1" parent="1">
          <mxGeometry x="990" y="60" width="60" height="30" as="geometry" />
        </mxCell>
        <mxCell id="n1FdgLcyJgvq4uo9NDfe-79" value="1" style="text;html=1;align=center;verticalAlign=middle;whiteSpace=wrap;rounded=0;" vertex="1" parent="1">
          <mxGeometry x="1130" y="210" width="60" height="30" as="geometry" />
        </mxCell>
        <mxCell id="n1FdgLcyJgvq4uo9NDfe-80" value="1" style="text;html=1;align=center;verticalAlign=middle;whiteSpace=wrap;rounded=0;" vertex="1" parent="1">
          <mxGeometry x="1050" y="210" width="60" height="30" as="geometry" />
        </mxCell>
        <mxCell id="n1FdgLcyJgvq4uo9NDfe-81" value="1" style="text;html=1;align=center;verticalAlign=middle;whiteSpace=wrap;rounded=0;" vertex="1" parent="1">
          <mxGeometry x="990" y="120" width="60" height="30" as="geometry" />
        </mxCell>
        <mxCell id="n1FdgLcyJgvq4uo9NDfe-82" value="1" style="text;html=1;align=center;verticalAlign=middle;whiteSpace=wrap;rounded=0;" vertex="1" parent="1">
          <mxGeometry x="860" y="315" width="60" height="30" as="geometry" />
        </mxCell>
        <mxCell id="n1FdgLcyJgvq4uo9NDfe-83" value="1" style="text;html=1;align=center;verticalAlign=middle;whiteSpace=wrap;rounded=0;" vertex="1" parent="1">
          <mxGeometry x="905" y="330" width="60" height="30" as="geometry" />
        </mxCell>
        <mxCell id="n1FdgLcyJgvq4uo9NDfe-87" value="1" style="text;html=1;align=center;verticalAlign=middle;whiteSpace=wrap;rounded=0;" vertex="1" parent="1">
          <mxGeometry x="970" y="330" width="60" height="30" as="geometry" />
        </mxCell>
        <mxCell id="n1FdgLcyJgvq4uo9NDfe-89" value="1" style="text;html=1;align=center;verticalAlign=middle;whiteSpace=wrap;rounded=0;" vertex="1" parent="1">
          <mxGeometry x="1010" y="330" width="60" height="30" as="geometry" />
        </mxCell>
        <mxCell id="n1FdgLcyJgvq4uo9NDfe-90" value="&lt;span style=&quot;white-space: pre;&quot;&gt;&#x9;&lt;/span&gt;n" style="text;html=1;align=center;verticalAlign=middle;whiteSpace=wrap;rounded=0;" vertex="1" parent="1">
          <mxGeometry x="610" y="340" width="60" height="30" as="geometry" />
        </mxCell>
        <mxCell id="n1FdgLcyJgvq4uo9NDfe-93" value="n" style="text;html=1;align=center;verticalAlign=middle;whiteSpace=wrap;rounded=0;" vertex="1" parent="1">
          <mxGeometry x="1310" y="350" width="60" height="30" as="geometry" />
        </mxCell>
        <mxCell id="n1FdgLcyJgvq4uo9NDfe-94" value="n" style="text;html=1;align=center;verticalAlign=middle;whiteSpace=wrap;rounded=0;" vertex="1" parent="1">
          <mxGeometry x="1090" y="380" width="60" height="30" as="geometry" />
        </mxCell>
        <mxCell id="n1FdgLcyJgvq4uo9NDfe-96" value="" style="endArrow=classic;html=1;rounded=0;entryX=0.5;entryY=0;entryDx=0;entryDy=0;exitX=0.253;exitY=1.004;exitDx=0;exitDy=0;exitPerimeter=0;edgeStyle=orthogonalEdgeStyle;" edge="1" parent="1" source="n1FdgLcyJgvq4uo9NDfe-6" target="n1FdgLcyJgvq4uo9NDfe-95">
          <mxGeometry width="50" height="50" relative="1" as="geometry">
            <mxPoint x="945" y="331" as="sourcePoint" />
            <mxPoint x="875" y="410" as="targetPoint" />
          </mxGeometry>
        </mxCell>
        <mxCell id="n1FdgLcyJgvq4uo9NDfe-95" value="n" style="text;html=1;align=center;verticalAlign=middle;whiteSpace=wrap;rounded=0;" vertex="1" parent="1">
          <mxGeometry x="827" y="380" width="60" height="30" as="geometry" />
        </mxCell>
      </root>
    </mxGraphModel>
  </diagram>
</mxfile>
